<svg width="1080" height="1080" viewBox="0 0 1080 1080" fill="none" xmlns="http://www.w3.org/2000/svg">
    <rect width="1080" height="1080" fill="#0054FF"/>
    <path d="M319.094 854.079C299.869 864.376 277.599 846.84 283.099 825.736L330.3 644.617C334.846 627.174 355.796 620.128 369.958 631.28L487.752 724.032C501.914 735.183 499.979 757.202 484.089 765.712L319.094 854.079Z" fill="white"/>
    <path fill-rule="evenodd" clip-rule="evenodd" d="M279.47 376.308C244.662 402.1 230.422 447.373 244.196 488.448L323.047 723.584C336.821 764.658 375.477 792.192 418.798 791.785L666.792 789.454C710.113 789.047 748.245 760.791 761.244 719.465L835.662 482.888C848.661 441.561 833.572 396.565 798.285 371.431L596.283 227.549C560.997 202.416 513.539 202.862 478.732 228.654L279.47 376.308ZM442.136 438.969C429.152 451.642 421.839 468.972 421.842 487.06C421.842 553.327 517.339 637.111 546.565 644.105C547.119 644.238 547.606 644.227 548.158 644.081C580.889 635.439 672.878 553.345 672.878 487.06C672.881 468.972 665.568 451.642 652.584 438.969C639.6 426.296 622.036 419.346 603.843 419.681C583.781 419.575 564.574 427.439 550.432 441.414C548.741 443.086 545.979 443.086 544.288 441.414C530.146 427.439 510.939 419.575 490.877 419.681C472.684 419.346 455.12 426.296 442.136 438.969Z" fill="white"/>
</svg>